<?xml version="1.0" standalone="no"?>
<!DOCTYPE svg PUBLIC "-//W3C//DTD SVG 20010904//EN"
 "http://www.w3.org/TR/2001/REC-SVG-20010904/DTD/svg10.dtd">
<svg version="1.0" xmlns="http://www.w3.org/2000/svg"
 width="512.000000pt" height="512.000000pt" viewBox="0 0 512.000000 512.000000"
 preserveAspectRatio="xMidYMid meet">
<metadata>
Created by potrace 1.11, written by Peter Selinger 2001-2013
</metadata>
<g transform="translate(0.000000,512.000000) scale(0.100000,-0.100000)"
fill="#000000" stroke="none">
<path d="M2365 5034 c-16 -2 -72 -9 -123 -15 -409 -47 -831 -220 -1182 -483
-118 -88 -328 -291 -425 -411 -281 -346 -460 -755 -532 -1215 -25 -162 -25
-538 0 -700 68 -435 224 -807 481 -1150 88 -118 291 -328 411 -425 346 -281
755 -460 1215 -532 162 -25 538 -25 700 0 460 72 869 251 1215 532 120 97 323
307 411 425 257 343 413 715 481 1150 13 86 18 173 18 350 0 323 -29 504 -126
795 -89 267 -243 548 -424 770 -97 120 -307 323 -425 411 -340 255 -716 413
-1140 479 -100 16 -486 29 -555 19z m1366 -1222 c69 -36 113 -111 106 -182 -3
-31 -106 -268 -344 -787 -187 -408 -352 -760 -366 -782 -32 -48 -85 -85 -197
-136 -47 -21 -276 -125 -510 -232 -948 -433 -907 -416 -955 -411 -106 12 -194
114 -182 211 5 45 662 1494 710 1566 33 49 85 85 207 140 145 66 844 385 1125
514 138 62 257 116 265 120 36 13 90 6 141 -21z"/>
<path d="M2453 2862 c-139 -50 -222 -179 -211 -327 10 -116 74 -212 176 -262
49 -24 69 -28 142 -28 73 0 93 4 142 28 65 32 121 90 152 156 30 65 30 197 0
262 -31 66 -87 124 -151 155 -73 36 -176 42 -250 16z"/>
</g>
</svg>
