<?xml version="1.0" standalone="no"?>
<!DOCTYPE svg PUBLIC "-//W3C//DTD SVG 20010904//EN"
 "http://www.w3.org/TR/2001/REC-SVG-20010904/DTD/svg10.dtd">
<svg version="1.0" xmlns="http://www.w3.org/2000/svg"
 width="400.000000pt" height="400.000000pt" viewBox="0 0 400.000000 400.000000"
 preserveAspectRatio="xMidYMid meet">
<metadata>
Created by potrace 1.11, written by Peter Selinger 2001-2013
</metadata>
<g transform="translate(0.000000,400.000000) scale(0.100000,-0.100000)"
fill="#000000" stroke="none">
<path d="M1786 3989 c-434 -46 -854 -244 -1175 -553 -623 -602 -788 -1536
-407 -2311 307 -625 905 -1043 1596 -1115 52 -5 116 -10 143 -10 l47 0 0 48
c0 44 18 113 33 128 4 4 7 20 7 36 0 15 5 28 10 28 6 0 10 14 10 30 0 17 5 30
10 30 6 0 10 14 10 30 0 27 15 67 31 80 3 3 14 26 24 53 15 39 17 66 12 148
-3 56 -10 106 -16 112 -6 6 -11 24 -11 39 0 27 -3 35 -27 83 -6 12 -16 52 -22
91 -10 59 -18 77 -49 111 -84 92 -128 148 -142 182 -19 44 -48 91 -92 150 -29
39 -33 52 -33 108 -1 58 -4 67 -33 99 -18 19 -32 43 -32 53 0 46 -58 131 -90
131 -4 0 -19 -18 -34 -39 -15 -22 -38 -42 -51 -45 -38 -10 -75 -96 -75 -177 0
-37 -5 -71 -10 -74 -5 -3 -10 -21 -10 -40 0 -19 -4 -36 -9 -39 -4 -3 -11 -29
-15 -57 -4 -29 -13 -64 -20 -78 -7 -14 -16 -52 -19 -83 -6 -58 -35 -125 -72
-164 -11 -11 -29 -32 -40 -47 -11 -15 -25 -27 -32 -27 -7 0 -13 -4 -13 -10 0
-5 -4 -10 -10 -10 -15 0 -12 87 4 113 7 12 16 46 19 76 4 29 12 60 19 68 12
15 15 81 28 548 2 44 -1 88 -5 98 -4 10 -3 17 3 17 6 0 14 21 18 46 5 33 15
53 37 73 31 27 107 171 107 203 0 10 5 18 10 18 6 0 10 9 10 20 0 11 5 20 10
20 6 0 10 5 10 11 0 6 14 24 30 39 17 15 30 32 30 37 0 4 12 19 25 32 22 20
25 32 25 90 0 36 -6 73 -13 81 -7 9 -44 42 -84 74 -58 46 -74 65 -79 93 -9 50
1 186 15 191 6 2 11 9 11 16 0 18 47 56 98 78 37 17 60 19 126 16 98 -6 130
-20 151 -65 9 -19 34 -46 55 -61 22 -15 39 -33 40 -39 0 -7 4 -13 8 -13 4 0
14 -21 21 -47 18 -64 34 -103 43 -103 5 0 8 -6 8 -12 0 -18 79 -88 99 -88 10
0 36 -16 58 -35 23 -19 46 -35 52 -35 6 0 11 -4 11 -10 0 -5 9 -10 20 -10 11
0 20 -4 20 -9 0 -5 21 -24 46 -42 25 -19 61 -49 80 -67 49 -47 136 -92 178
-92 20 0 36 4 36 8 0 8 100 32 133 32 10 0 37 19 62 43 69 67 70 67 139 67
108 0 145 -26 146 -101 0 -56 -13 -69 -95 -94 -60 -19 -66 -20 -95 -24 -8 0
-29 -15 -47 -31 -18 -17 -37 -30 -43 -30 -7 0 -24 -8 -38 -18 -33 -22 -96 -52
-111 -52 -6 0 -25 -9 -43 -20 -46 -28 -109 -26 -177 6 -31 15 -58 30 -61 34
-3 4 -15 9 -28 13 -25 6 -70 -26 -73 -53 -3 -22 12 -80 22 -86 5 -3 9 -16 9
-29 0 -33 28 -114 51 -147 11 -14 19 -42 19 -62 0 -20 5 -36 10 -36 6 0 10
-13 10 -29 0 -17 5 -33 10 -36 6 -3 10 -32 10 -64 l0 -57 48 -24 c29 -15 70
-26 110 -28 34 -2 62 -8 62 -13 0 -5 15 -9 34 -9 19 0 38 -4 41 -10 3 -5 16
-10 29 -10 12 0 26 -4 31 -9 6 -4 51 -18 100 -30 98 -24 165 -49 165 -63 0 -4
6 -8 13 -8 8 0 20 -12 28 -27 8 -16 22 -35 31 -44 10 -9 18 -19 18 -23 0 -3
14 -20 30 -38 17 -17 30 -36 30 -42 0 -6 21 -29 47 -51 48 -42 162 -154 250
-246 28 -30 53 -65 55 -77 2 -19 14 -9 69 60 95 119 162 225 235 373 381 775
216 1709 -407 2311 -428 413 -1014 615 -1603 553z"/>
<path d="M2461 961 c-23 -23 -26 -37 -11 -46 6 -3 10 -34 10 -67 0 -71 18
-189 31 -203 12 -13 11 -105 -1 -105 -5 0 -10 -8 -10 -19 0 -10 -7 -32 -15
-47 -8 -16 -15 -36 -15 -44 0 -8 -9 -33 -20 -55 -11 -22 -19 -50 -20 -63 0
-21 -17 -61 -31 -72 -3 -3 -9 -23 -12 -45 -4 -22 -13 -74 -22 -115 -8 -41 -15
-76 -15 -77 0 -2 138 -3 306 -3 285 0 306 1 311 18 2 10 26 28 52 40 27 12 54
29 61 37 7 8 17 15 22 15 5 0 18 9 30 20 12 11 29 20 37 20 9 0 27 14 40 30
13 17 30 30 38 30 14 0 26 8 68 48 13 12 27 22 30 22 22 0 36 34 33 77 l-3 48
-59 2 c-54 1 -63 5 -88 34 -15 17 -28 37 -28 44 0 6 -9 20 -20 30 -11 10 -20
22 -20 28 0 5 -13 22 -30 37 -16 15 -30 35 -30 43 0 9 -4 17 -9 19 -5 2 -18
19 -29 38 -40 66 -206 240 -228 240 -8 0 -14 4 -14 9 0 21 -94 40 -232 48 -78
4 -89 2 -107 -16z"/>
</g>
</svg>
